Patient4_TMGait_0pt5_01_left_38_EMG.mot
version=1
nRows=23
nColumns=33
inDegrees=no
endheader
time	1LAddLong	2LGlutMax	3LGlutMed	4LIliopsoas	5LSemiMemb	6LBicFemLong	7LRecFem	8LVastMed	9LVastLat	10LGasMed	11LTibAnt	12lTibPost	13LPeroneusLong	14LSol	15LExtDigLong	16LFlexDigLong	17RAddLong	18RGlutMax	19RGlutMed	20RIliopsoas	21RSemiMemb	22RBicFemLong	23RRecFem	24RVastMed	25RVastLat	26RGasMed	27RTibAnt	28RTibPost	29RPeroneusLong	30RSol	31RExtDigLong	32RFlexDigLong
51.54	-0.003967	-0.009003	-0.21378	-0.007019	0.009155	0.018616	0.10574	0.014191	-0.027161	-0.52887	0.020752	0.031281	-0.091553	0.13168	0.04715	-0.3096	-0.00351	-0.11704	0.14526	-0.012054	0.33722	-0.11673	0.15488	0.17075	-0.20966	-0.001831	0.03067	-0.005951	-0.16419	0.014496	-0.010834	-0.003204
51.541	0.003815	-0.007172	-0.27222	0.001984	-0.016174	0.023956	0.078278	0.016785	-0.023651	-0.31845	0.019989	0.32181	-0.1358	0.18845	0.028229	0.16571	0.020599	-0.10513	0.19974	0.014343	0.37903	-0.28366	0.21255	0.035095	-0.13687	0.000458	0.05127	-0.005646	-0.22415	0.020447	-0.001068	-0.005798
51.542	0.005646	0.011139	-0.31998	0.009613	-0.046539	0.036469	0.055847	0.015106	-0.010986	-0.24353	0.017395	-0.46677	-0.083923	0.13123	0.016174	-0.020294	0.06134	-0.09201	0.19043	-0.009918	0.31052	-0.37003	0.18265	-0.079651	-0.093231	-0.001068	0.031433	-0.006256	-0.010834	-0.00412	0	-0.010986
51.543	0.01297	0.032654	-0.33844	0.011292	-0.081329	0.06012	0.057068	0.011597	-0.000305	-0.168	0.009308	-0.041656	0.005035	0.14893	-0.001678	-0.2562	0.094299	-0.034637	-0.012665	0.014801	0.26596	-0.36163	0.11826	-0.17044	-0.078735	0.001068	0.002136	-0.009308	0.56595	-0.015259	0.001068	-0.008698
51.544	0.009766	0.052185	-0.30945	0.015564	-0.089874	0.027161	0.044861	0.003967	0.000305	0.07843	-0.000458	-0.097809	-0.016785	0.40207	-0.042114	-0.10239	0.083618	0.041504	0.019836	-0.014191	0.12482	-0.29602	0.11414	-0.1181	-0.020752	0.000458	0.006409	-0.012054	0.34698	-0.008087	0.009918	-0.014954
51.545	0.01236	0.047455	-0.3241	0.002899	-0.029144	-0.018768	0.037689	0.007019	-0.003815	0.13718	-0.012207	0.072479	0.081329	0.12711	-0.036469	0.13336	0.072784	0.052643	0.19241	-0.015869	0.057373	-0.21774	0.08194	0.041809	0.045929	0.00412	0.008087	-0.01358	0.11551	-0.006409	-0.003204	-0.010071
51.546	0.022278	0.051575	-0.32089	0.01358	0.039215	-0.010223	0.055237	0.004272	-0.003052	0.095367	-0.013733	0.049591	0.14053	-0.096893	-0.003967	0.13702	0.024872	0.0914	0.28091	0.003357	0.35416	-0.17227	0.10178	0.027313	0.077362	0.001221	0.033264	-0.005493	0.15015	-0.014496	0.002136	-0.014648
51.547	0.016174	0.031891	-0.24674	-0.001678	0.052185	-0.075226	0.041809	0.007477	-0.001831	0.14069	-0.008392	0.049133	0.086212	0.12405	-0.009766	-0.29297	-0.061188	0.10101	0.27405	0.020294	0.1889	-0.1004	0.10681	0.007477	0.13031	0.002289	0.036621	-0.002899	0.17548	0.018921	0.000305	-0.014191
51.548	0.005188	0.06958	-0.25055	0.005646	0.050201	-0.13718	0.058136	0.002747	-0.016174	0.033569	-0.006409	0.027771	0.061493	-0.087585	-0.021973	0.018158	-0.10315	0.11673	0.037384	-0.007782	-0.25559	0.13367	0.041809	0.039673	0.087585	0	0.023804	-0.006256	0.17288	0.024261	0.009918	-0.006561
51.549	0.021362	0.023651	-0.27283	0.007629	0.037079	-0.070496	0.045776	0.00885	-0.016327	-0.039368	0.005035	-0.003967	0.012207	-0.33783	-0.026093	0.15595	-0.13397	0.037994	-0.025482	0.006714	-0.34454	0.36865	0.11765	0.064087	0.063629	0.001373	0.019531	-0.003357	0.083466	0.009918	0.000153	-0.00946
51.55	0.02182	0.016327	-0.27435	0.005035	0.030975	-0.035553	0.047455	0.009613	-0.029907	-0.10284	0.006714	-0.015411	-0.041809	-0.25574	-0.011902	0.030212	-0.12085	0.076599	0.02594	0.016632	-0.018311	0.33814	0.15442	0.055237	0.026245	0.000763	-0.005798	-0.005035	0.0737	0.000305	-0.001068	-0.016327
51.551	0.011292	0.066681	-0.29709	-0.011292	0.003815	-0.00412	0.052032	0.00824	-0.026398	-0.12405	0.00351	-0.063629	-0.035858	-0.16907	0.025177	0.001373	-0.088806	0.098114	0.24399	0.011597	0.61005	0.035095	0.17395	0.045166	0.018616	0.00061	-0.020599	-0.003204	0.12665	-0.001678	0	-0.012512
51.552	0.003967	0.098114	-0.31403	0.001984	-0.018768	0.028534	0.046234	0.005493	-0.024567	-0.12405	0.006866	-0.086212	-0.014801	-0.10681	0.020447	-0.020599	-0.028687	-0.022278	0.74219	0.025177	0.91034	-0.080109	0.15503	-0.050659	-0.017395	0.001068	-0.008545	-0.006866	0.15366	0.009308	-0.00061	-0.00412
51.553	0.014191	0.09079	-0.31067	0.029297	-0.020142	0.052185	0.065002	0.01236	-0.040588	-0.12177	0.006104	-0.06134	-0.031433	-0.032654	0.016785	-0.021057	0.007629	-0.08728	0.32425	0.023346	0.55283	-0.22461	0.099335	-0.17151	-0.040588	0.001068	0.012817	-0.003204	0.14771	0.008545	0.000763	-0.001526
51.554	0.000763	0.10254	-0.31174	0.018616	-0.027924	0.04425	0.067749	0.011749	-0.053406	-0.050964	0.006866	-0.030975	-0.02533	0.016937	0.010681	-0.018311	0.020142	-0.056458	0.16052	-0.038452	0.014954	-0.10696	0.078278	-0.22018	-0.03479	0.005493	0.0354	-0.005798	-0.068207	0.009155	-0.000305	0.007629
51.555	0.008545	0.12619	-0.32806	0.012054	-0.046387	0.028076	0.045929	0.008087	-0.052643	0.039673	0.011444	-0.024109	-0.002899	0.21652	0.006866	-0.016785	-0.031281	-0.054779	0.41718	-0.15411	-0.20538	0.032501	-0.038605	-0.17303	0.050201	-0.00351	0.074463	-0.004425	-0.47592	-0.004578	0	-0.000153
51.556	0.006714	0.14328	-0.32013	0.002899	-0.022888	0.014801	0.037994	0.00885	-0.048218	0.1239	-0.006409	-0.02121	0.007324	0.10483	-0.006104	-0.030975	0.011292	0.011292	0.49698	-0.22507	-0.065308	-0.029907	-0.00885	-0.094147	0.13519	0.000305	0.08255	-0.005341	-0.62882	0.003967	-0.00351	-0.009766
51.557	0.006866	0.15701	-0.3273	0.005341	-0.036926	-0.010681	0.027466	0.014343	-0.048828	0.096283	0.006866	-0.012665	0.033722	-0.04303	-0.015106	-0.023041	0.0737	-0.025177	0.25757	-0.21408	0.19974	-0.094452	-0.04715	-0.03479	0.13504	-0.001678	0.067596	-0.005188	-0.68832	-0.075226	0.001678	-0.00061
51.558	0.006104	0.18265	-0.35385	0.009766	-0.018311	-0.11032	0.020294	0.007477	-0.046539	0.070343	0.010681	-0.012817	0.033722	0.018921	0.005798	0.001221	0.062561	-0.038452	-0.000458	-0.087128	0.49149	-0.19134	-0.25925	0.15228	0.1564	0.006714	0.040741	-0.006561	0.57327	-0.097961	-0.001831	0.00351
51.559	-0.005035	0.14908	-0.36911	0.008698	0.001831	-0.13702	0.026703	0.013275	-0.056915	-0.005493	0.002289	-0.016022	0.04837	0.018768	0.012512	0.009766	0.045471	-0.002899	-0.080719	0.091095	0.79102	-0.289	-0.33279	0.19943	0.13229	0	0.020752	-0.00473	0.78903	-0.096436	-0.001526	-0.007019
51.56	0.021667	0.13596	-0.3389	-0.007477	0.044861	-0.1004	0.024872	0.008392	-0.042114	-0.1799	-0.004272	-0.011444	0.004578	-0.15915	0.013123	0.023956	0.036316	-0.076447	0.18417	0.30426	0.57907	-0.32059	-0.17914	0.068817	0.044403	-0.001831	0.018005	-0.010376	0.56305	0.003357	-0.001526	-0.018768
51.561	0.017548	0.12268	-0.34775	0.003967	0.072479	-0.037384	0.025024	0.010529	-0.042114	-0.13977	0.002136	-0.008087	0.026093	-0.17181	0.004578	0.017395	-0.027313	-0.12558	0.5661	0.37201	0.27039	-0.14328	-0.083618	-0.019531	0.040894	-0.001831	-0.075836	-0.005188	0.40924	0.030518	0.003815	-0.014343
51.562	0.014648	0.1651	-0.32501	0.000763	0.031891	0.038757	0.012817	0.009308	-0.046082	0.018921	0.010529	-0.006409	0.041962	-0.25085	0.007019	0.009918	-0.037842	-0.12238	0.34546	0.22201	0.15045	-0.081024	-0.015717	-0.074158	-0.013275	-0.002899	-0.10407	-0.010071	0.02243	-0.023499	-0.000153	-0.016785
